<?xml version="1.0" encoding="UTF-8" standalone="no"?>
<!-- Created with Inkscape (http://www.inkscape.org/) -->

<svg
   width="173.88309mm"
   height="38.604836mm"
   viewBox="0 0 173.88309 38.604836"
   version="1.1"
   id="svg1"
   xml:space="preserve"
   xmlns="http://www.w3.org/2000/svg"
   xmlns:svg="http://www.w3.org/2000/svg"><defs
     id="defs1"><style
       id="style1">.cls-1{fill:#662d91;}</style></defs><g
     id="layer1"
     transform="translate(-17.630826,-16.934764)"><g
       transform="matrix(0.03039932,0,0,-0.03039932,17.630827,68.77269)"
       id="g13"><path
         d="m 1094.859,1079.592 34.024,342.761 122.409,282.88 v -312.81 L 1094.859,1079.6"
         fill="#f1471d"
         id="path7"
         transform="translate(2.4447207e-6,2.7163565e-5)"
         style="fill:#391950;fill-opacity:1" /><path
         d="m 1094.859,1079.592 28.583,-367.211 127.849,-258.419 V 766.774 L 1094.859,1079.6"
         fill="#f1471d"
         id="path8"
         transform="translate(2.4447207e-6,2.7163565e-5)"
         style="fill:#391950;fill-opacity:1" /><path
         d="M 625.646,1548.821 269.3,1588.285 0,1705.233 H 312.812 L 625.646,1548.8"
         fill="#fbc707"
         id="path1-0"
         style="fill:#9c5bcc;fill-opacity:1" /><path
         d="m 625.646,1548.821 364.507,31.304 261.139,125.108 H 938.458 L 625.646,1548.8"
         fill="#fbc707"
         id="path2-0"
         style="fill:#9c5bcc;fill-opacity:1" /><path
         d="M 625.646,610.373 965.671,598.132 1251.292,453.961 H 938.458 L 625.646,610.4"
         fill="#f68712"
         id="path3-1"
         style="fill:#7633a6;fill-opacity:1" /><path
         d="M 625.646,610.373 H 282.901 L 0,453.962 H 312.812 L 625.646,610.4"
         fill="#f25c19"
         id="path4-1"
         style="fill:#391950;fill-opacity:1" /><path
         d="M 156.406,1079.592 V 750.464 L 0,453.962 V 766.774 L 156.406,1079.6"
         fill="#fff200"
         id="path5-1"
         style="fill:#b889da;fill-opacity:1" /><path
         d="M 156.406,1079.592 130.569,1406.032 0,1705.233 v -312.81 L 156.406,1079.6"
         fill="#fff200"
         id="path6"
         style="fill:#b889da;fill-opacity:1" /><path
         d="M 0,1705.233 625.646,1548.821 524.999,1150.333 156.406,1079.592 0,1705.2"
         fill="#fab20b"
         id="path9"
         style="fill:#8038b5;fill-opacity:1" /><path
         d="m 1251.292,1705.233 -156.433,-625.641 -420.25,76.2 -48.964,393.048 625.647,156.36"
         fill="#f47216"
         id="path10"
         style="fill:#562579;fill-opacity:1" /><path
         d="m 1251.292,453.962 -625.646,156.411 70.725,414.8 398.488,54.388 L 1251.292,454"
         fill="#f25c19"
         id="path11"
         style="fill:#562579;fill-opacity:1" /><path
         d="m 0,453.962 156.406,625.63 376.753,-84.31 L 625.646,610.374 0,454"
         fill="#f89c0e"
         id="path12"
         style="fill:#8038b5;fill-opacity:1" /><path
         d="M 625.646,1548.821 156.406,1079.592 625.646,610.373 1094.859,1079.592 625.646,1548.8"
         fill="#f68712"
         id="path13"
         style="fill:#662d91;fill-opacity:1" /></g><text
       xml:space="preserve"
       style="font-size:53.3046px;letter-spacing:0px;writing-mode:lr-tb;direction:ltr;fill:#662d91;fill-opacity:1;stroke-width:0.277627"
       x="61.017818"
       y="55.006439"
       id="text1"><tspan
         id="tspan1"
         style="font-style:normal;font-variant:normal;font-weight:900;font-stretch:normal;font-size:53.3046px;font-family:'Noto Sans';-inkscape-font-specification:'Noto Sans Heavy';letter-spacing:0px;fill:#662d91;fill-opacity:1;stroke-width:0.277627"
         x="61.017818"
         y="55.006439">Ro<tspan
   style="font-size:41.1327px;stroke-width:0.277627"
   id="tspan2">K</tspan>u</tspan></text></g></svg>
